<?xml version="1.0" encoding="UTF-8"?><svg id="Layer_1" xmlns="http://www.w3.org/2000/svg" xmlns:xlink="http://www.w3.org/1999/xlink" viewBox="0 0 150.76 152.56"><defs><style>.cls-1{clip-path:url(#clippath);}.cls-2{fill:none;}.cls-2,.cls-3,.cls-4{stroke-width:0px;}.cls-3{fill:#79bd44;}.cls-4{fill:#e55140;}</style><clipPath id="clippath"><circle class="cls-2" cx="83.77" cy="86.33" r="61.09"/></clipPath></defs><g class="cls-1"><rect class="cls-3" x="88.2" y="20.12" width="1.49" height="126.91" transform="translate(-33.05 87.4) rotate(-45.01)"/><rect class="cls-3" x="92.19" y="15.91" width="1.49" height="126.91" transform="translate(-28.9 88.99) rotate(-45.01)"/><rect class="cls-3" x="95.87" y="11.29" width="1.49" height="126.91" transform="translate(-24.55 90.24) rotate(-45.01)"/><rect class="cls-3" x="99.66" y="7.08" width="1.49" height="126.91" transform="translate(-20.46 91.68) rotate(-45.01)"/><rect class="cls-3" x="103.34" y="2.45" width="1.49" height="126.91" transform="translate(-16.11 92.93) rotate(-45.01)"/><rect class="cls-3" x="107.55" y="-1.54" width="1.49" height="126.91" transform="translate(-12.05 94.73) rotate(-45.01)"/><rect class="cls-3" x="112.17" y="-5.22" width="1.49" height="126.91" transform="translate(-8.1 96.93) rotate(-45.01)"/><rect class="cls-3" x="116.06" y="-9.43" width="1.49" height="126.91" transform="translate(-3.98 98.45) rotate(-45.01)"/><rect class="cls-3" x="120.37" y="-13.32" width="1.49" height="126.91" transform="translate(.03 100.36) rotate(-45.01)"/><rect class="cls-3" x="125.63" y="-16.47" width="1.49" height="126.91" transform="translate(3.81 103.15) rotate(-45.01)"/><rect class="cls-3" x="47.14" y="61.17" width="1.49" height="126.91" transform="translate(-74.11 70.39) rotate(-45.01)"/><rect class="cls-3" x="42.54" y="64.9" width="1.49" height="126.91" transform="translate(-78.1 68.23) rotate(-45.01)"/><rect class="cls-3" x="51.14" y="56.97" width="1.49" height="126.91" transform="translate(-69.97 71.99) rotate(-45.01)"/><rect class="cls-3" x="54.82" y="52.34" width="1.49" height="126.91" transform="translate(-65.62 73.23) rotate(-45.01)"/><rect class="cls-3" x="58.6" y="48.13" width="1.49" height="126.91" transform="translate(-61.53 74.68) rotate(-45.01)"/><rect class="cls-3" x="62.28" y="43.51" width="1.49" height="126.91" transform="translate(-57.18 75.93) rotate(-45.01)"/><rect class="cls-3" x="66.49" y="39.51" width="1.49" height="126.91" transform="translate(-53.12 77.73) rotate(-45.01)"/><rect class="cls-3" x="71.12" y="35.83" width="1.49" height="126.91" transform="translate(-49.16 79.92) rotate(-45.01)"/><rect class="cls-3" x="75.01" y="31.63" width="1.49" height="126.91" transform="translate(-45.05 81.44) rotate(-45.01)"/><rect class="cls-3" x="79.32" y="27.74" width="1.49" height="126.91" transform="translate(-41.03 83.35) rotate(-45.01)"/><rect class="cls-3" x="84.58" y="24.58" width="1.49" height="126.91" transform="translate(-37.26 86.14) rotate(-45.01)"/></g><path class="cls-4" d="M9.38,5.86v52h51.95V5.86H9.38ZM57.98,54.47H12.8V9.25h45.19v45.23Z"/></svg>