<?xml version="1.0" encoding="UTF-8"?><svg id="Layer_1" xmlns="http://www.w3.org/2000/svg" xmlns:xlink="http://www.w3.org/1999/xlink" viewBox="0 0 284.77 158"><defs><style>.cls-1{clip-path:url(#clippath);}.cls-2{fill:none;}.cls-2,.cls-3,.cls-4{stroke-width:0px;}.cls-3{fill:#0a8345;}.cls-4{fill:#86c5b8;}</style><clipPath id="clippath"><path class="cls-2" d="M280.42,153.14H2.21C2.24,76.34,64.51,14.09,141.31,14.09s139.07,62.25,139.11,139.05Z"/></clipPath></defs><g class="cls-1"><rect class="cls-3" x="-8.41" y="58.37" width="107.12" height="3.39" transform="translate(-29.22 49.31) rotate(-44.84)"/><rect class="cls-3" x="-3.8" y="98.53" width="243.06" height="3.39" transform="translate(-36.39 112.61) rotate(-45)"/><rect class="cls-3" x="6.89" y="106.17" width="243.06" height="3.39" transform="translate(-38.66 122.4) rotate(-45)"/><rect class="cls-3" x="17.06" y="115.07" width="243.06" height="3.39" transform="translate(-41.97 132.2) rotate(-45)"/><rect class="cls-3" x="29.53" y="120.92" width="243.06" height="3.39" transform="translate(-42.46 142.73) rotate(-45)"/><rect class="cls-3" x="40.47" y="129.06" width="243.06" height="3.39" transform="translate(-45.01 152.85) rotate(-45)"/><rect class="cls-3" x="51.16" y="137.46" width="243.06" height="3.39" transform="translate(-47.82 162.86) rotate(-45)"/><rect class="cls-3" x="62.86" y="144.58" width="243.06" height="3.39" transform="translate(-49.43 173.23) rotate(-45)"/><rect class="cls-3" x="73.29" y="152.72" width="243.06" height="3.39" transform="translate(-52.13 182.99) rotate(-45)"/><rect class="cls-3" x="85.5" y="159.34" width="243.06" height="3.39" transform="translate(-53.23 193.56) rotate(-45)"/><rect class="cls-3" x="97.97" y="166.21" width="243.06" height="3.39" transform="translate(-54.44 204.38) rotate(-45)"/><rect class="cls-3" x="109.16" y="173.58" width="243.06" height="3.39" transform="translate(-56.37 214.46) rotate(-45)"/><rect class="cls-3" x="115.26" y="185.8" width="243.06" height="3.39" transform="translate(-63.22 222.35) rotate(-45)"/><rect class="cls-3" x="-14" y="89.92" width="243.06" height="3.39" transform="translate(-33.29 102.87) rotate(-45)"/><rect class="cls-3" x="-24.21" y="81.3" width="243.06" height="3.39" transform="translate(-30.18 93.13) rotate(-45)"/><rect class="cls-3" x="-34.87" y="73.14" width="243.06" height="3.39" transform="translate(-27.53 83.2) rotate(-45)"/><rect class="cls-3" x="-44.16" y="64.06" width="243.06" height="3.39" transform="translate(-23.84 73.97) rotate(-45)"/><rect class="cls-3" x="-53.23" y="54.31" width="243.06" height="3.39" transform="translate(-19.6 64.7) rotate(-45)"/></g><polygon class="cls-4" points="227.44 44.39 257.66 75.54 248.5 84.42 218.55 53.55 188.6 84.42 179.45 75.54 209.67 44.39 179.45 13.24 188.6 4.36 218.55 35.23 248.5 4.36 257.66 13.24 227.44 44.39"/></svg>