<?xml version="1.0" encoding="UTF-8"?><svg id="Layer_1" xmlns="http://www.w3.org/2000/svg" viewBox="0 0 170.52 382.16"><defs><style>.cls-1{fill:#285e39;}.cls-1,.cls-2,.cls-3,.cls-4{stroke-width:0px;}.cls-2{fill:#49a148;}.cls-3{fill:#94cb73;}.cls-4{fill:#86c6b7;}</style></defs><circle class="cls-3" cx="5.16" cy="175.15" r="1.11"/><circle class="cls-3" cx="22.46" cy="171.48" r="1.11"/><circle class="cls-3" cx="10.72" cy="158.23" r="1.11"/><circle class="cls-3" cx="34.23" cy="184.89" r="1.11"/><circle class="cls-3" cx="40.15" cy="167.87" r="1.11"/><circle class="cls-3" cx="28.43" cy="154.57" r="1.11"/><circle class="cls-3" cx="16.95" cy="188.41" r="1.11"/><circle class="cls-3" cx="46.03" cy="197.99" r="1.11"/><circle class="cls-3" cx="63.66" cy="194.34" r="1.11"/><circle class="cls-3" cx="86.82" cy="173.71" r="1.11"/><circle class="cls-3" cx="40.42" cy="215.04" r="1.11"/><circle class="cls-3" cx="51.86" cy="181.33" r="1.11"/><circle class="cls-3" cx="63.36" cy="147.36" r="1.11"/><circle class="cls-3" cx="51.54" cy="134.12" r="1.11"/><circle class="cls-3" cx="33.92" cy="137.7" r="1.11"/><circle class="cls-3" cx="75.07" cy="160.82" r="1.11"/><circle class="cls-3" cx="92.45" cy="156.67" r="1.11"/><circle class="cls-3" cx="68.98" cy="130.32" r="1.11"/><circle class="cls-3" cx="57.16" cy="117.08" r="1.11"/><circle class="cls-3" cx="80.69" cy="143.78" r="1.11"/><circle class="cls-3" cx="139.36" cy="209.45" r="1.11"/><circle class="cls-3" cx="115.89" cy="183.1" r="1.11"/><circle class="cls-3" cx="104.07" cy="169.87" r="1.11"/><circle class="cls-3" cx="127.6" cy="196.56" r="1.11"/><circle class="cls-3" cx="45.71" cy="150.8" r="1.11"/><circle class="cls-3" cx="57.42" cy="164.26" r="1.11"/><circle class="cls-3" cx="69.18" cy="177.47" r="1.11"/><circle class="cls-3" cx="28.66" cy="201.88" r="1.11"/><circle class="cls-3" cx="51.91" cy="227.9" r="1.11"/><circle class="cls-3" cx="69.21" cy="224.24" r="1.11"/><circle class="cls-3" cx="57.47" cy="210.99" r="1.11"/><circle class="cls-3" cx="80.98" cy="237.64" r="1.11"/><circle class="cls-3" cx="86.9" cy="220.62" r="1.11"/><circle class="cls-3" cx="75.18" cy="207.32" r="1.11"/><circle class="cls-3" cx="63.7" cy="241.17" r="1.11"/><circle class="cls-3" cx="92.78" cy="250.74" r="1.11"/><circle class="cls-3" cx="110.4" cy="247.09" r="1.11"/><circle class="cls-3" cx="133.57" cy="226.46" r="1.11"/><circle class="cls-3" cx="87.17" cy="267.79" r="1.11"/><circle class="cls-3" cx="98.61" cy="234.08" r="1.11"/><circle class="cls-3" cx="110.11" cy="200.11" r="1.11"/><circle class="cls-3" cx="98.29" cy="186.88" r="1.11"/><circle class="cls-3" cx="80.67" cy="190.45" r="1.11"/><circle class="cls-3" cx="121.82" cy="213.57" r="1.11"/><circle class="cls-3" cx="92.46" cy="203.55" r="1.11"/><circle class="cls-3" cx="104.17" cy="217.01" r="1.11"/><circle class="cls-3" cx="115.93" cy="230.22" r="1.11"/><circle class="cls-3" cx="75.41" cy="254.63" r="1.11"/><circle class="cls-3" cx="74.66" cy="113.46" r="1.11"/><circle class="cls-3" cx="91.97" cy="109.8" r="1.11"/><circle class="cls-3" cx="80.22" cy="96.55" r="1.11"/><circle class="cls-3" cx="103.74" cy="123.2" r="1.11"/><circle class="cls-3" cx="109.65" cy="106.18" r="1.11"/><circle class="cls-3" cx="97.93" cy="92.88" r="1.11"/><circle class="cls-3" cx="86.46" cy="126.73" r="1.11"/><circle class="cls-3" cx="115.53" cy="136.3" r="1.11"/><circle class="cls-3" cx="133.16" cy="132.66" r="1.11"/><circle class="cls-3" cx="156.33" cy="112.03" r="1.11"/><circle class="cls-3" cx="109.92" cy="153.35" r="1.11"/><circle class="cls-3" cx="121.36" cy="119.64" r="1.11"/><circle class="cls-3" cx="132.86" cy="85.67" r="1.11"/><circle class="cls-3" cx="121.04" cy="72.44" r="1.11"/><circle class="cls-3" cx="103.42" cy="76.01" r="1.11"/><circle class="cls-3" cx="144.58" cy="99.14" r="1.11"/><circle class="cls-3" cx="161.95" cy="94.98" r="1.11"/><circle class="cls-3" cx="138.49" cy="68.63" r="1.11"/><circle class="cls-3" cx="126.66" cy="55.39" r="1.11"/><circle class="cls-3" cx="150.2" cy="82.09" r="1.11"/><circle class="cls-3" cx="115.21" cy="89.11" r="1.11"/><circle class="cls-3" cx="126.92" cy="102.57" r="1.11"/><circle class="cls-3" cx="138.69" cy="115.78" r="1.11"/><circle class="cls-3" cx="98.17" cy="140.19" r="1.11"/><circle class="cls-3" cx="121.41" cy="166.22" r="1.11"/><circle class="cls-3" cx="138.71" cy="162.55" r="1.11"/><circle class="cls-3" cx="126.97" cy="149.3" r="1.11"/><circle class="cls-3" cx="150.49" cy="175.95" r="1.11"/><circle class="cls-3" cx="156.4" cy="158.93" r="1.11"/><circle class="cls-3" cx="144.68" cy="145.63" r="1.11"/><circle class="cls-3" cx="133.2" cy="179.48" r="1.11"/><circle class="cls-3" cx="162.28" cy="189.05" r="1.11"/><circle class="cls-3" cx="156.67" cy="206.1" r="1.11"/><circle class="cls-3" cx="168.11" cy="172.39" r="1.11"/><circle class="cls-3" cx="167.79" cy="125.19" r="1.11"/><circle class="cls-3" cx="150.17" cy="128.76" r="1.11"/><circle class="cls-3" cx="161.96" cy="141.86" r="1.11"/><circle class="cls-3" cx="144.92" cy="192.94" r="1.11"/><circle class="cls-3" cx="143.7" cy="52.11" r="1.11"/><circle class="cls-3" cx="161" cy="48.45" r="1.11"/><circle class="cls-3" cx="149.26" cy="35.2" r="1.11"/><circle class="cls-3" cx="166.97" cy="31.53" r="1.11"/><circle class="cls-3" cx="155.49" cy="65.38" r="1.11"/><circle class="cls-3" cx="167.2" cy="78.84" r="1.11"/><circle class="cls-3" cx="167.99" cy="219.36" r="1.11"/><circle class="cls-3" cx="98.95" cy="280.71" r="1.11"/><circle class="cls-3" cx="116.26" cy="277.04" r="1.11"/><circle class="cls-3" cx="104.52" cy="263.79" r="1.11"/><circle class="cls-3" cx="128.03" cy="290.45" r="1.11"/><circle class="cls-3" cx="133.94" cy="273.42" r="1.11"/><circle class="cls-3" cx="122.22" cy="260.12" r="1.11"/><circle class="cls-3" cx="110.75" cy="293.97" r="1.11"/><circle class="cls-3" cx="139.82" cy="303.54" r="1.11"/><circle class="cls-3" cx="157.45" cy="299.9" r="1.11"/><circle class="cls-3" cx="134.21" cy="320.6" r="1.11"/><circle class="cls-3" cx="145.65" cy="286.89" r="1.11"/><circle class="cls-3" cx="157.15" cy="252.92" r="1.11"/><circle class="cls-3" cx="145.33" cy="239.68" r="1.11"/><circle class="cls-3" cx="127.71" cy="243.26" r="1.11"/><circle class="cls-3" cx="168.87" cy="266.38" r="1.11"/><circle class="cls-3" cx="162.78" cy="235.87" r="1.11"/><circle class="cls-3" cx="150.95" cy="222.64" r="1.11"/><circle class="cls-3" cx="139.5" cy="256.35" r="1.11"/><circle class="cls-3" cx="151.21" cy="269.81" r="1.11"/><circle class="cls-3" cx="162.98" cy="283.03" r="1.11"/><circle class="cls-3" cx="122.46" cy="307.43" r="1.11"/><circle class="cls-3" cx="145.7" cy="333.46" r="1.11"/><circle class="cls-3" cx="163" cy="329.79" r="1.11"/><circle class="cls-3" cx="151.26" cy="316.54" r="1.11"/><circle class="cls-3" cx="168.97" cy="312.87" r="1.11"/><circle class="cls-3" cx="157.49" cy="346.72" r="1.11"/><circle class="cls-3" cx="169.21" cy="360.19" r="1.11"/><path class="cls-4" d="M170.45,88.45l-5.54,1.04-7.96-42.55-94.63,17.71,9.67,51.67,42.96-8.04,7.97,42.6,42.55-7.96,4.78,25.54M170.55,132.64l-6.8,1.27v-.05s-33.4,6.25-33.4,6.25l-8-42.74-42.62,7.98-6.27-33.49,42.62-7.98-.02-.1,33.4-6.25,7.98,42.65,9.42-1.76v-.05s3.66-.69,3.66-.69"/><polygon class="cls-2" points="126.08 307.23 138.14 319.66 134.49 323.21 122.53 310.88 110.57 323.21 106.91 319.66 118.98 307.23 106.91 294.79 110.57 291.24 122.53 303.57 134.49 291.24 138.14 294.79 126.08 307.23"/><path class="cls-1" d="M170.88,142.3v137.62h-.08c-38,0-68.81-30.81-68.81-68.81s30.81-68.81,68.81-68.81h.08Z"/></svg>