<?xml version="1.0" encoding="UTF-8"?><svg id="Layer_1" xmlns="http://www.w3.org/2000/svg" xmlns:xlink="http://www.w3.org/1999/xlink" viewBox="0 0 157.05 382.16"><defs><style>.cls-1{clip-path:url(#clippath);}.cls-2{fill:none;}.cls-2,.cls-3,.cls-4,.cls-5,.cls-6{stroke-width:0px;}.cls-3{fill:#78bd43;}.cls-4{fill:#79bd44;}.cls-5{fill:#285e39;}.cls-6{fill:#c8d971;}</style><clipPath id="clippath"><path class="cls-2" d="M-1.1,374.29l.02-196.5c54.24.03,98.21,44.01,98.2,98.26,0,54.24-43.98,98.22-98.22,98.24Z"/></clipPath></defs><circle class="cls-6" cx="91.92" cy="220.22" r="61.96"/><path class="cls-4" d="M44.56,58.57c-14.65,0-26.53,11.88-26.53,26.53s11.88,26.53,26.53,26.53,26.53-11.87,26.53-26.53-11.88-26.53-26.53-26.53ZM44.56,105.4c-11.22,0-20.31-9.09-20.31-20.31s9.09-20.3,20.31-20.3,20.31,9.09,20.31,20.3-9.09,20.31-20.31,20.31Z"/><g class="cls-1"><rect class="cls-3" x="63.45" y="170.3" width="2.4" height="75.65" transform="translate(-127.94 106.13) rotate(-44.84)"/><rect class="cls-3" x="35.08" y="173.55" width="2.4" height="171.67" transform="translate(-172.78 101.61) rotate(-44.99)"/><rect class="cls-3" x="29.69" y="181.1" width="2.4" height="171.67" transform="translate(-179.69 100) rotate(-44.99)"/><rect class="cls-3" x="23.4" y="188.29" width="2.4" height="171.67" transform="translate(-186.61 97.66) rotate(-44.99)"/><rect class="cls-3" x="19.26" y="197.09" width="2.4" height="171.67" transform="translate(-194.05 97.32) rotate(-44.99)"/><rect class="cls-3" x="13.51" y="204.82" width="2.4" height="171.67" transform="translate(-201.2 95.51) rotate(-44.99)"/><rect class="cls-3" x="7.58" y="212.36" width="2.4" height="171.67" transform="translate(-208.27 93.53) rotate(-44.99)"/><rect class="cls-3" x="2.55" y="220.63" width="2.4" height="171.67" transform="translate(-215.59 92.39) rotate(-44.99)"/><rect class="cls-3" x="-3.2" y="228" width="2.4" height="171.67" transform="translate(-222.48 90.48) rotate(-44.99)"/><rect class="cls-3" x="-7.87" y="236.62" width="2.4" height="171.67" transform="translate(-229.94 89.71) rotate(-44.99)"/><rect class="cls-3" x="-12.72" y="245.42" width="2.4" height="171.67" transform="translate(-237.59 88.85) rotate(-44.99)"/><rect class="cls-3" x="-17.94" y="253.33" width="2.4" height="171.67" transform="translate(-244.7 87.48) rotate(-44.99)"/><rect class="cls-3" x="-26.56" y="257.64" width="2.4" height="171.67" transform="translate(-250.28 82.65) rotate(-44.99)"/><rect class="cls-3" x="41.16" y="166.35" width="2.4" height="171.67" transform="translate(-165.9 103.8) rotate(-44.99)"/><rect class="cls-3" x="47.25" y="159.14" width="2.4" height="171.67" transform="translate(-159.02 105.99) rotate(-44.99)"/><rect class="cls-3" x="53.02" y="151.61" width="2.4" height="171.67" transform="translate(-152.01 107.87) rotate(-44.99)"/><rect class="cls-3" x="59.43" y="145.05" width="2.4" height="171.67" transform="translate(-145.49 110.47) rotate(-44.99)"/><rect class="cls-3" x="66.31" y="138.64" width="2.4" height="171.67" transform="translate(-138.94 113.47) rotate(-44.99)"/></g><polyline class="cls-5" points="-.06 22.88 24.88 37.2 43.36 5.01 75.59 23.51 38.54 88.04 6.35 69.57 .05 80.54"/></svg>