<?xml version="1.0" encoding="UTF-8"?><svg id="Layer_2" xmlns="http://www.w3.org/2000/svg" xmlns:xlink="http://www.w3.org/1999/xlink" viewBox="0 0 246.81 246.81"><defs><style>.cls-1{clip-path:url(#clippath);}.cls-2{fill:none;}.cls-2,.cls-3{stroke-width:0px;}.cls-3{fill:#86c8bc;}</style><clipPath id="clippath"><circle class="cls-2" cx="123.41" cy="123.41" r="123.41"/></clipPath></defs><g id="Layer_1-2"><g class="cls-1"><rect class="cls-3" x="132.36" y="-10.33" width="3" height="256.35" transform="translate(-44.12 129.21) rotate(-45.01)"/><rect class="cls-3" x="140.43" y="-18.82" width="3" height="256.35" transform="translate(-35.75 132.43) rotate(-45.01)"/><rect class="cls-3" x="147.86" y="-28.17" width="3" height="256.35" transform="translate(-26.96 134.95) rotate(-45.01)"/><rect class="cls-3" x="155.51" y="-36.67" width="3" height="256.35" transform="translate(-18.71 137.87) rotate(-45.01)"/><rect class="cls-3" x="162.94" y="-46.01" width="3" height="256.35" transform="translate(-9.92 140.39) rotate(-45.01)"/><rect class="cls-3" x="171.44" y="-54.08" width="3" height="256.35" transform="translate(-1.72 144.03) rotate(-45.01)"/><rect class="cls-3" x="180.78" y="-61.52" width="3" height="256.35" transform="translate(6.27 148.46) rotate(-45.01)"/><rect class="cls-3" x="188.64" y="-70.01" width="3" height="256.35" transform="translate(14.59 151.53) rotate(-45.01)"/><rect class="cls-3" x="197.35" y="-77.87" width="3" height="256.35" transform="translate(22.7 155.39) rotate(-45.01)"/><rect class="cls-3" x="207.97" y="-84.24" width="3" height="256.35" transform="translate(30.32 161.03) rotate(-45.01)"/><rect class="cls-3" x="49.43" y="72.6" width="3" height="256.35" transform="translate(-127.08 94.86) rotate(-45.01)"/><rect class="cls-3" x="40.13" y="80.13" width="3" height="256.35" transform="translate(-135.13 90.49) rotate(-45.01)"/><rect class="cls-3" x="57.5" y="64.1" width="3" height="256.35" transform="translate(-118.7 98.08) rotate(-45.01)"/><rect class="cls-3" x="64.94" y="54.76" width="3" height="256.35" transform="translate(-109.92 100.6) rotate(-45.01)"/><rect class="cls-3" x="72.58" y="46.26" width="3" height="256.35" transform="translate(-101.67 103.52) rotate(-45.01)"/><rect class="cls-3" x="80.02" y="36.92" width="3" height="256.35" transform="translate(-92.88 106.04) rotate(-45.01)"/><rect class="cls-3" x="88.51" y="28.85" width="3" height="256.35" transform="translate(-84.68 109.68) rotate(-45.01)"/><rect class="cls-3" x="97.86" y="21.41" width="3" height="256.35" transform="translate(-76.68 114.11) rotate(-45.01)"/><rect class="cls-3" x="105.72" y="12.91" width="3" height="256.35" transform="translate(-68.37 117.18) rotate(-45.01)"/><rect class="cls-3" x="114.42" y="5.06" width="3" height="256.35" transform="translate(-60.26 121.04) rotate(-45.01)"/><rect class="cls-3" x="125.04" y="-1.32" width="3" height="256.35" transform="translate(-52.64 126.68) rotate(-45.01)"/></g></g></svg>